<?xml version="1.0" encoding="utf-8"?>
<!-- Generator: Adobe Illustrator 23.0.3, SVG Export Plug-In . SVG Version: 6.00 Build 0)  -->
<svg version="1.1" xmlns="http://www.w3.org/2000/svg" xmlns:xlink="http://www.w3.org/1999/xlink" x="0px" y="0px" viewBox="0 0 50 50" enable-background="new 0 0 50 50" xml:space="preserve">
  <g id="Layer_1"></g>
  <g id="Layer_2">
    <path fill="none" stroke="#0B1824" stroke-width="2" stroke-miterlimit="10" d="M23,37H4c-1.1,0-2-0.9-2-2V6c0-1.1,0.9-2,2-2h42
		c1.1,0,2,0.9,2,2v29c0,1.1-0.9,2-2,2h-1" />
    <g>
      <path fill="#00AFE6" d="M40.33,45c-0.75,0.65-1.64,1.18-2.67,1.58c-1.03,0.4-2.18,0.6-3.44,0.6c-1.13,0-2.24-0.18-3.33-0.54
			c-1.09-0.36-2.08-0.92-2.95-1.66c-0.87-0.74-1.57-1.66-2.1-2.77c-0.53-1.1-0.8-2.41-0.8-3.9c0-1.28,0.24-2.52,0.72-3.73
			s1.16-2.28,2.05-3.22c0.86-0.92,1.93-1.66,3.2-2.23c1.27-0.56,2.65-0.85,4.15-0.85c1.29,0,2.42,0.21,3.37,0.62
			c0.95,0.42,1.73,0.96,2.34,1.65c0.61,0.67,1.06,1.45,1.36,2.32c0.3,0.88,0.45,1.79,0.45,2.74c0,1.83-0.5,3.37-1.51,4.63
			c-1,1.26-2.27,1.89-3.81,1.89c-0.64,0-1.18-0.16-1.62-0.48c-0.44-0.32-0.69-0.77-0.74-1.34l-0.08-0.02
			c-0.36,0.55-0.77,0.98-1.23,1.31c-0.46,0.33-0.92,0.49-1.4,0.49c-0.31,0-0.62-0.05-0.94-0.15c-0.32-0.1-0.6-0.27-0.85-0.5
			c-0.25-0.25-0.44-0.57-0.59-0.97s-0.22-0.89-0.22-1.47c0-0.55,0.13-1.16,0.38-1.84c0.25-0.68,0.59-1.32,1.01-1.94
			c0.43-0.62,0.98-1.16,1.65-1.62s1.41-0.69,2.19-0.69c0.42,0,0.79,0.12,1.12,0.35c0.33,0.24,0.53,0.58,0.6,1.04h0.07l0.49-1.26
			h1.68l-2.12,6.04c-0.07,0.19-0.12,0.4-0.16,0.65c-0.04,0.24-0.06,0.44-0.06,0.58c0,0.38,0.1,0.66,0.29,0.84
			c0.2,0.18,0.45,0.26,0.75,0.26c1.16,0,2.13-0.54,2.91-1.63c0.78-1.09,1.17-2.52,1.17-4.31c0-0.88-0.14-1.7-0.42-2.45
			c-0.28-0.75-0.7-1.42-1.27-1.99c-0.55-0.57-1.23-1.02-2.07-1.35c-0.83-0.33-1.78-0.49-2.85-0.49c-1.02,0-2.01,0.2-2.98,0.6
			s-1.85,0.98-2.64,1.75c-0.77,0.75-1.4,1.68-1.88,2.8s-0.72,2.38-0.72,3.78c0,1.35,0.19,2.55,0.56,3.58
			c0.37,1.03,0.9,1.89,1.58,2.59c0.67,0.67,1.45,1.18,2.36,1.52c0.91,0.34,1.89,0.51,2.94,0.51c1.19,0,2.25-0.16,3.18-0.48
			s1.76-0.79,2.5-1.4L40.33,45z M36.42,35.32c-0.11-0.61-0.27-1.05-0.51-1.33c-0.23-0.28-0.57-0.42-1.02-0.42
			c-0.48,0-0.92,0.19-1.32,0.58c-0.4,0.39-0.74,0.85-1.02,1.38c-0.29,0.55-0.52,1.16-0.68,1.82c-0.16,0.66-0.24,1.26-0.24,1.82
			c0,0.64,0.08,1.13,0.23,1.47s0.41,0.51,0.76,0.51c0.51,0,0.97-0.18,1.37-0.53c0.4-0.35,0.78-0.85,1.13-1.5L36.42,35.32z" />
    </g>
    <polyline fill="none" stroke="#0B1824" stroke-width="2" stroke-miterlimit="10" points="2,4 25,24 48,4 	" />
    <line fill="none" stroke="#0B1824" stroke-width="2" stroke-miterlimit="10" x1="2" y1="37" x2="21" y2="22" />
    <line fill="none" stroke="#0B1824" stroke-miterlimit="10" x1="32.5" y1="24.5" x2="29" y2="22" />
  </g>
</svg>