<svg id="Layer_1" data-name="Layer 1" xmlns="http://www.w3.org/2000/svg" viewBox="0 0 81 81"><defs><style>.cls-1{fill:#002855;}</style></defs><title>icon_diamond_81x81</title><polygon class="cls-1" points="37.7 23.5 27.2 23.5 30.3 31.4 37.7 23.5"/><polygon class="cls-1" points="48.3 32.5 40.4 24.2 32.6 32.5 48.3 32.5"/><polygon class="cls-1" points="20.1 34.9 36.7 54.4 29 34.9 20.1 34.9"/><polygon class="cls-1" points="53.9 23.5 43.2 23.5 50.7 31.4 53.9 23.5"/><polygon class="cls-1" points="25.1 24.9 19.8 32.5 28.1 32.5 25.1 24.9"/><polygon class="cls-1" points="53 32.5 61.2 32.5 56 24.9 53 32.5"/><polygon class="cls-1" points="31.6 34.9 40.5 57.4 49.4 34.9 31.6 34.9"/><path class="cls-1" d="M40.5,0A40.5,40.5,0,1,0,81,40.5,40.46,40.46,0,0,0,40.5,0ZM64.4,34.5,41.5,61.4a1.33,1.33,0,0,1-1,.6h0a1.1,1.1,0,0,1-1-.6L16.6,34.5a1.2,1.2,0,0,1-.1-1.5l7.9-11.4a1.23,1.23,0,0,1,1-.5H55.6a1.23,1.23,0,0,1,1,.5L64.5,33A1.21,1.21,0,0,1,64.4,34.5Z"/><polygon class="cls-1" points="44.3 54.4 60.9 34.9 52 34.9 44.3 54.4"/></svg>