<svg id="Layer_1" data-name="Layer 1" xmlns="http://www.w3.org/2000/svg" viewBox="0 0 81 81"><defs><style>.cls-1{fill:#002855;}</style></defs><title>icon_sproket_81x81</title><circle class="cls-1" cx="40.5" cy="40.4" r="5.2"/><path class="cls-1" d="M40.5,0A40.5,40.5,0,1,0,81,40.5,40.46,40.46,0,0,0,40.5,0ZM27,59.1A23.07,23.07,0,0,1,40.5,17.3V15.4c0-.2.2-.3.4-.2l5.4,3.7a.21.21,0,0,1,0,.4L40.9,23c-.2.1-.4,0-.4-.2v-2A19.62,19.62,0,0,0,29,56.3Zm5.4-7.5a.85.85,0,0,1-1.3,0l-1.8-1.8a.85.85,0,0,1,0-1.3l1.6-1.6a12,12,0,0,1-1.7-4.2H27.1a1,1,0,0,1-1-1V39.1a1,1,0,0,1,1-1h2.1a11.26,11.26,0,0,1,1.7-4.2l-1.6-1.6a.85.85,0,0,1,0-1.3l1.8-1.8a.85.85,0,0,1,1.3,0L34,30.8a12,12,0,0,1,4.2-1.7V27a1,1,0,0,1,1-1h2.6a1,1,0,0,1,1,1v2.1A11.26,11.26,0,0,1,47,30.8l1.6-1.6a.85.85,0,0,1,1.3,0L51.7,31a.85.85,0,0,1,0,1.3L50,34a12,12,0,0,1,1.7,4.2h2.1a1,1,0,0,1,1,1v2.6a1,1,0,0,1-1,1H51.7A11.26,11.26,0,0,1,50,47l1.6,1.6a.85.85,0,0,1,0,1.3l-1.8,1.8a.85.85,0,0,1-1.3,0l-1.6-1.6a12,12,0,0,1-4.2,1.7v2.1a1,1,0,0,1-1,1H39.1a1,1,0,0,1-1-1V51.8a11.26,11.26,0,0,1-4.2-1.7Zm8.1,11.8v2c0,.2-.2.3-.4.2l-5.4-3.7a.21.21,0,0,1,0-.4l5.4-3.7c.2-.1.4,0,.4.2v2A19.62,19.62,0,0,0,52,24.5l2-2.8A23,23,0,0,1,40.5,63.4Z"/></svg>