<svg id="Layer_1" data-name="Layer 1" xmlns="http://www.w3.org/2000/svg" viewBox="0 0 81 81"><defs><style>.cls-1{fill:#002855;}</style></defs><title>icon_growth_81x81</title><path class="cls-1" d="M40.5,0A40.5,40.5,0,1,0,81,40.5,40.46,40.46,0,0,0,40.5,0ZM57.4,52a1.9,1.9,0,0,1,0,3.8H23.5a1.84,1.84,0,0,1-1.9-1.9v-31a1.9,1.9,0,0,1,3.8,0V52H31V42.4a1.9,1.9,0,0,1,3.8,0V52h5.6V35a1.9,1.9,0,0,1,3.8,0V52h5.6V26.4l-2.4,2.4a1.71,1.71,0,0,1-2.6,0,1.78,1.78,0,0,1,0-2.6l5.6-5.6a1.71,1.71,0,0,1,2.6,0l5.6,5.6a1.71,1.71,0,0,1,0,2.6,1.78,1.78,0,0,1-2.6,0l-2.4-2.4V52Z"/></svg>