<svg id="Layer_1" data-name="Layer 1" xmlns="http://www.w3.org/2000/svg" viewBox="0 0 81 81"><defs><style>.cls-1{fill:#002855;}</style></defs><title>icon_connected_81x81</title><path class="cls-1" d="M48.9,39.6,44.5,28.5a10,10,0,0,1-1.6.2,6.75,6.75,0,0,1-1.4-.2l-1.6,7a4.08,4.08,0,0,1,2.9,3.8Z"/><path class="cls-1" d="M42.8,40.2a4.55,4.55,0,0,1-.8,1.9l7.6,7.4A8.07,8.07,0,0,1,52,47.8l-2.9-7.3Z"/><path class="cls-1" d="M40.5,0A40.5,40.5,0,1,0,81,40.5,40.46,40.46,0,0,0,40.5,0ZM55.7,63.5a8.28,8.28,0,0,1-8.3-8.3A7.91,7.91,0,0,1,49.3,50l-7.6-7.4a4.11,4.11,0,0,1-2.8,1.1,4.17,4.17,0,0,1-3.5-1.9l-4.7,2.7c0,.3.1.6.1.9a6.5,6.5,0,1,1-.2-1.7l4.5-2.5a4.15,4.15,0,0,1-.3-1.6,4.38,4.38,0,0,1,.8-2.5l-2-1.8a3.23,3.23,0,0,1-2.1.8,3.3,3.3,0,1,1,3.3-3.3,4.24,4.24,0,0,1-.6,1.9l2,1.8A4.11,4.11,0,0,1,39,35.4a4.33,4.33,0,0,1,.5.1l1.6-7.1A5.86,5.86,0,0,1,37.4,23,5.8,5.8,0,1,1,49,23a5.7,5.7,0,0,1-3.5,5.3L50,39.7l4.9.2a2.48,2.48,0,1,1,2.4,3,2.58,2.58,0,0,1-2.5-2.2l-4.5-.2,2.8,7a8.57,8.57,0,0,1,2.7-.5,8.35,8.35,0,0,1,8.4,8.2A8.52,8.52,0,0,1,55.7,63.5Z"/></svg>